<?xml version="1.0" encoding="utf-8"?>
<!-- Generator: Adobe Illustrator 16.0.0, SVG Export Plug-In . SVG Version: 6.00 Build 0)  -->
<!DOCTYPE svg PUBLIC "-//W3C//DTD SVG 1.1//EN" "http://www.w3.org/Graphics/SVG/1.1/DTD/svg11.dtd">
<svg version="1.1" id="Lag_1" xmlns="http://www.w3.org/2000/svg" xmlns:xlink="http://www.w3.org/1999/xlink" x="0px" y="0px"
	 width="7086.609px" height="5669.29px" viewBox="0 0 7086.609 5669.29" enable-background="new 0 0 7086.609 5669.29"
	 xml:space="preserve">
<path fill="#F0E4D6" d="M5803.408,243.083H4632.289c-199,0-360.342,161.342-360.342,360.342v900.871
	c0,198.999,161.342,360.342,360.342,360.342h270.26v450.436l450.435-450.436h450.437c198.999,0,360.342-161.343,360.342-360.342
	V603.436C6163.762,404.436,6002.419,243.083,5803.408,243.083z"/>
<path fill="#EBDCCA" d="M5987.545,295.16c-371.787,886.271-1103.018,1297.424-1591.1,1479.396
	c65.042,57.747,148.918,89.818,235.844,90.083h270.26v450.436l450.435-450.436h450.437c198.999,0,360.342-161.343,360.342-360.342
	V603.436C6163.486,476.773,6096.556,359.654,5987.545,295.16z"/>
<path fill="#FEC9A3" d="M4632.289,5558.185l900.859-1711.639h-720.693l-450.436,810.778v-720.695
	c0-298.54-241.977-540.518-540.519-540.518h-540.519c-149.276,0-270.26-120.983-270.26-270.26V2765.51h-720.694v360.342
	c0,149.276-120.983,270.26-270.26,270.26H1479.25c-298.541,0-540.518,241.978-540.518,540.52v1621.554H4632.289z"/>
<g>
	<path fill="#F5B789" d="M1656.281,5558.185h-180.166v-239.538c-221.612-298.456-236.382-702.58-37.203-1016.448l65.854-103.775
		l152.158,96.574l-65.854,103.691c-164.319,258.814-146.035,593.493,45.49,832.937c12.795,15.941,19.73,35.852,19.73,56.302v270.258
		H1656.281z"/>
	<path fill="#F5B789" d="M3824.668,5558.185h-180.177v-270.258c0-20.45,6.937-40.36,19.731-56.302
		c191.525-239.359,209.81-574.026,45.49-832.853l-65.854-103.775l152.158-96.576l65.854,103.777
		c199.179,313.859,184.409,717.992-37.203,1016.448V5558.185z"/>
</g>
<path fill="#F8837C" d="M3911.595,2405.157v-900.86c0-696.551-564.663-1261.213-1261.214-1261.213l0,0
	c-696.541,0-1261.202,564.663-1261.202,1261.213v900.861c0,298.54,241.977,540.518,540.518,540.518h1441.38
	C3669.629,2945.675,3911.595,2703.709,3911.595,2405.157z"/>
<path opacity="0.12" d="M2650.392,243.083c-122.07,0.095-243.413,17.926-360.342,52.88
	c534.385,159.368,900.681,650.702,900.861,1208.333v900.861c0,298.54-241.977,540.518-540.519,540.518h720.695
	c298.542,0,540.519-241.978,540.519-540.518v-900.861C3911.595,807.746,3346.932,243.083,2650.392,243.083z"/>
<path fill="#FEC9A3" d="M5623.243,3846.546h-810.778c0-298.54,241.977-540.518,540.519-540.518h810.778
	C6163.762,3604.571,5921.785,3846.546,5623.243,3846.546z"/>
<g>
	<rect x="4632.289" y="603.436" fill="#CCBFB0" width="630.602" height="180.177"/>
	<rect x="5443.066" y="603.436" fill="#CCBFB0" width="360.342" height="180.177"/>
	<rect x="4632.289" y="963.778" fill="#CCBFB0" width="1171.119" height="180.176"/>
	<rect x="4632.289" y="1324.12" fill="#CCBFB0" width="630.602" height="180.176"/>
</g>
<path fill="#F7C097" d="M3011.188,3130.444c0-1.53,0-3.061,0-4.592V2765.51h-721.138v360.342c0,1.531,0,3.062,0,4.592
	c227.018,113.963,494.575,113.963,721.592,0H3011.188z"/>
<path fill="#FEC9A3" d="M1839.614,1746.992v387.917c0,447.817,362.96,810.778,810.778,810.778s810.778-362.96,810.778-810.778
	v-720.695c0.18-134.317-33.149-266.564-97.019-384.666L1839.614,1746.992z"/>
<rect x="2019.779" y="3936.629" fill="#F8837C" width="1261.213" height="990.955"/>
<path fill="#5C6AC4" d="M4812.467,3846.546l-450.438,810.778v-720.695c0-298.54-241.976-540.518-540.518-540.518h-288.28
	L2650.38,4567.231l-837.792-1171.119h-333.327c-298.542,0-540.519,241.978-540.519,540.52v1621.554h3693.547l900.859-1711.639
	H4812.467z"/>
<path opacity="0.12" d="M5533.148,3846.546h-720.693l-450.436,810.778v-720.695c-0.095-275.485-207.286-506.832-481.156-537.099
	c-162.146,1258.416-918.059,1866.595-1585.503,2158.654h2336.929L5533.148,3846.546z"/>
<g>
	<path fill="#3685BA" d="M1656.281,5558.185h-180.166v-239.538c-221.612-298.456-236.382-702.58-37.203-1016.448l65.854-103.775
		l152.158,96.574l-65.854,103.691c-164.319,258.814-146.035,593.493,45.49,832.937c12.795,15.941,19.73,35.852,19.73,56.302v270.258
		H1656.281z"/>
	<path fill="#3685BA" d="M3824.668,5558.185h-180.177v-270.258c0-20.45,6.937-40.36,19.731-56.302
		c191.525-239.359,209.81-574.026,45.49-832.853l-65.854-103.775l152.158-96.576l65.854,103.777
		c199.179,313.859,184.409,717.992-37.203,1016.448V5558.185z"/>
</g>
<path fill="#F7C097" d="M3461.169,2134.898v-720.695c0.18-134.317-33.149-266.564-97.019-384.666l-228.644,107.565
	c36.58,119.009,55.224,242.694,55.403,367.193v900.861c0,298.54-241.977,540.518-540.519,540.518
	C3098.209,2945.675,3461.169,2582.726,3461.169,2134.898L3461.169,2134.898z"/>
<path d="M3371.076,2945.675h-90.083v180.177h90.083c348.096-0.359,630.242-282.516,630.602-630.602v-990.954
	C4001.678,758.022,3396.656,153,2650.381,153S1299.084,758.022,1299.084,1504.296v990.954
	c0.359,348.097,282.516,630.242,630.602,630.602h90.083v-180.177h-90.073c-248.638-0.273-450.16-201.796-450.435-450.435v-990.944
	c0-646.817,524.303-1171.12,1171.119-1171.12c646.818,0,1171.131,524.303,1171.131,1171.12v990.954
	C3821.237,2743.888,3619.715,2945.411,3371.076,2945.675z"/>
<path d="M1656.915,4294.998l-152.159-96.576l-65.854,103.777c-199.178,313.859-184.41,717.992,37.203,1016.448v239.538h180.176
	v-270.258c0-20.45-6.936-40.36-19.731-56.302c-191.525-239.455-209.811-574.122-45.489-832.937L1656.915,4294.998z"/>
<path d="M5803.408,153H4632.289c-248.639,0.275-450.161,201.797-450.436,450.436v900.861
	c0.274,248.638,201.797,450.16,450.436,450.435h180.176v360.342c0,36.391,21.896,69.275,55.582,83.242
	c10.906,4.592,22.697,6.852,34.502,6.852c23.869,0,46.84-9.459,63.689-26.393l424.033-424.032h413.137
	c248.639-0.285,450.161-201.809,450.437-450.446V603.436C6253.569,354.797,6052.047,153.275,5803.408,153z M6073.668,1504.296
	c0,149.276-120.982,270.259-270.26,270.259h-450.434c-23.87,0-46.843,9.458-63.691,26.392L4992.632,2097.6v-232.962
	c0-49.724-40.36-90.083-90.083-90.083h-270.26c-149.276,0-270.26-120.983-270.26-270.259V603.436
	c0-149.275,120.983-270.259,270.26-270.259h1171.119c149.277,0,270.26,120.984,270.26,270.259V1504.296z"/>
<rect x="4632.289" y="603.436" width="630.602" height="180.177"/>
<rect x="5443.066" y="603.436" width="360.342" height="180.177"/>
<rect x="4632.289" y="963.778" width="1171.119" height="180.176"/>
<rect x="4632.289" y="1324.12" width="630.602" height="180.176"/>
<path d="M3644.491,5287.927v270.258h180.177v-239.538c221.612-298.456,236.382-702.58,37.203-1016.448l-65.854-103.775
	l-152.158,96.574l65.854,103.775c164.319,258.816,146.035,593.493-45.49,832.853
	C3651.428,5247.567,3644.491,5267.477,3644.491,5287.927z"/>
<path d="M1028.836,3936.629c0.275-248.639,201.797-450.161,450.436-450.435h286.655l811.221,1133.474
	c16.669,23.331,43.42,37.297,72.073,37.656h1.171c28.377,0,55.044-13.334,72.072-36.03l855.825-1135.091h243.232
	c248.639,0.275,450.161,201.799,450.436,450.437v720.696c0.096,49.723,40.443,90.082,90.178,89.997
	c32.706,0,62.793-17.746,78.65-46.303l424.666-764.38h516.47l-878.343,1621.556h204.943l878.701-1621.556h36.031
	c348.096-0.359,630.242-282.516,630.601-630.602c0-49.723-40.359-90.083-90.083-90.083h-810.777
	c-338.004,0.359-615.557,267.198-629.346,604.927l-271.516,488.812v-373.075c-0.358-348.096-282.515-630.243-630.601-630.601
	H3492.27l-2.428-1.89l-1.626,1.89h-207.223c-99.542,0-180.176-80.625-180.176-180.177v-211.975
	c278.366-160.708,449.982-457.551,450.435-778.979v-720.695c-0.095-149.276-37.297-296.208-108.104-427.548
	c-22.697-41.796-73.962-58.739-117.109-38.734l-1524.811,717.454c-31.533,14.865-51.708,46.663-51.708,81.532v388.001
	c0.454,321.429,172.068,618.261,450.436,778.981v211.963c0,99.543-80.624,180.177-180.177,180.177h-540.518
	c-348.086,0.357-630.243,282.505-630.602,630.601v1621.556h180.177V3936.629z M5352.983,3396.112h711.68
	c-43.062,209.63-227.472,360.078-441.42,360.342h-711.68C4954.615,3546.824,5139.025,3396.385,5352.983,3396.112z
	 M2652.282,4415.168l-278.009-388.457h570.786L2652.282,4415.168z M1929.696,2134.898v-330.793l1391.022-654.567
	c33.245,84.235,50.357,174.043,50.357,264.675v720.695c0,398-322.686,720.696-720.696,720.696
	C2252.372,2855.604,1929.696,2532.908,1929.696,2134.898z M2019.779,3486.195c199,0,360.343-161.344,360.343-360.343v-131.614
	c175.943,55.402,364.576,55.402,540.518,0v131.614c0,198.999,161.343,360.343,360.342,360.343h72.072l-271.706,360.342h-836.357
	l-257.918-360.342H2019.779z"/>
</svg>
