<?xml version="1.0" encoding="utf-8"?>
<!-- Generator: Adobe Illustrator 16.0.0, SVG Export Plug-In . SVG Version: 6.00 Build 0)  -->
<!DOCTYPE svg PUBLIC "-//W3C//DTD SVG 1.1//EN" "http://www.w3.org/Graphics/SVG/1.1/DTD/svg11.dtd">
<svg version="1.1" id="Lag_1" xmlns="http://www.w3.org/2000/svg" xmlns:xlink="http://www.w3.org/1999/xlink" x="0px" y="0px"
	 width="7086.609px" height="5669.29px" viewBox="0 0 7086.609 5669.29" enable-background="new 0 0 7086.609 5669.29"
	 xml:space="preserve">
<g>
	<g>
		<path opacity="0.12" d="M3489.69,5417.534"/>
	</g>
	<g>
		<path fill="#3C122C" d="M3492.437,5462.886 M3492.437,5211.388"/>
	</g>
</g>
<path fill="#5C6AC4" d="M3464.534,203.502L1095.184,1347.308c-29.702,14.335-48.584,44.423-48.584,77.407v2814.533
	c0,32.983,18.882,63.062,48.584,77.407l2369.351,1143.839c47.222,22.797,102.251,22.797,149.474,0l2369.351-1143.827
	c29.702-14.337,48.585-44.424,48.585-77.407V1424.725c0-32.982-18.883-63.06-48.585-77.407L3614.008,203.502
	C3566.785,180.706,3511.756,180.706,3464.534,203.502z"/>
<path fill="#4D5FAA" d="M1060.892,1377.664c-9.039,13.758-14.293,29.948-14.293,47.051v2814.533
	c0,32.995,18.882,63.06,48.584,77.407l2369.351,1143.839c23.61,11.397,49.174,17.103,74.736,17.103V2574.128L1060.892,1377.664z"/>
<path fill="#5C6AC4" d="M6017.65,1377.664c9.038,13.758,14.293,29.948,14.293,47.051v2814.533c0,32.995-18.883,63.06-48.585,77.407
	L3614.008,5460.494c-23.611,11.397-49.174,17.103-74.737,17.103V2574.128L6017.65,1377.664z"/>
<polygon fill="#F8837C" points="5177.767,1781.736 2690.681,580.242 2035.077,898.019 4527.738,2101.389 "/>
<path fill="#D86464" d="M4527.738,2101.389v932.227c0,31.685,33.122,52.476,61.666,38.697l539.777-260.581
	c29.713-14.337,48.585-44.425,48.585-77.406v-952.589L4527.738,2101.389z"/>
<path d="M6066.909,1298.337L3574.237,95c-22.1-10.658-47.834-10.658-69.922,0L1011.633,1298.337
	c-27.793,13.414-45.454,41.562-45.454,72.421v2922.445c0,30.861,17.661,59.007,45.454,72.422l2492.672,1203.358
	c11.043,5.33,23.01,8.001,34.966,8.001s23.912-2.671,34.967-8.001l2492.672-1203.358c27.794-13.415,45.454-41.563,45.454-72.422
	V1370.77C6112.362,1339.899,6094.692,1311.762,6066.909,1298.337z M3539.271,256.718L5846.967,1370.77l-668.954,322.944
	c-4.235-3.228-8.707-6.208-13.618-8.579L2872.376,578.666L3539.271,256.718z M2690.756,669.594l2304.34,1112.432l-471.957,227.845
	L2219.752,897.879L2690.756,669.594z M4608.169,2147.42l440.84-212.822v842.221l-440.84,212.823V2147.42z M3619.69,5368.45V2624.6
	l556.216-268.517c39.996-19.312,56.766-67.381,37.454-107.387c-19.311-39.984-67.382-56.777-107.388-37.454l-566.702,273.587
	l-222.987-107.655c-40.006-19.333-88.076-2.541-107.388,37.454s-2.541,88.076,37.454,107.388l212.502,102.583v2743.84
	L1127.02,4242.733v-2743.85l1775.669,857.222c11.27,5.447,23.183,8.02,34.902,8.02c29.895,0,58.61-16.749,72.475-45.475
	c19.312-39.996,2.541-88.076-37.454-107.388l-1741.036-840.505l798.891-385.672l2415.748,1166.239
	c0.354,0.492,0.75,0.932,1.114,1.415v965.027c0,27.676,14.229,53.398,37.669,68.121c13.019,8.171,27.869,12.299,42.763,12.299
	c11.923,0,23.879-2.647,34.956-7.998l601.679-290.467c27.793-13.414,45.454-41.549,45.454-72.42v-970.346l741.675-358.051v2743.85
	L3619.69,5368.45z"/>
<path d="M1790.687,3930.854l-365.803-176.592c-40.018-19.331-88.077-2.54-107.388,37.455
	c-19.312,39.996-2.542,88.076,37.455,107.387l365.802,176.592c11.27,5.447,23.184,8.02,34.902,8.02
	c29.895,0,58.61-16.748,72.475-45.474C1847.452,3998.236,1830.682,3950.166,1790.687,3930.854z"/>
<path d="M2127.346,3711.705l-701.959-338.878c-40.006-19.313-88.075-2.542-107.387,37.464c-19.3,39.997-2.53,88.077,37.465,107.388
	l701.958,338.878c11.27,5.438,23.183,8.021,34.902,8.021c29.895,0,58.61-16.75,72.474-45.476
	C2184.11,3779.096,2167.341,3731.006,2127.346,3711.705z"/>
</svg>
