<?xml version="1.0" encoding="utf-8"?>
<!-- Generator: Adobe Illustrator 16.0.0, SVG Export Plug-In . SVG Version: 6.00 Build 0)  -->
<!DOCTYPE svg PUBLIC "-//W3C//DTD SVG 1.1//EN" "http://www.w3.org/Graphics/SVG/1.1/DTD/svg11.dtd">
<svg version="1.1" id="Lag_1" xmlns="http://www.w3.org/2000/svg" xmlns:xlink="http://www.w3.org/1999/xlink" x="0px" y="0px"
	 width="7086.609px" height="5669.29px" viewBox="0 0 7086.609 5669.29" enable-background="new 0 0 7086.609 5669.29"
	 xml:space="preserve">
<g>
	<g>
		<g>
			<path fill="#5C6AC4" d="M4751.911,2585.598h1402.984v487.383c0,120.493-98.339,218.922-218.745,218.922h-504.648
				l-301.028,152.051l-378.563-152.051V2585.598z"/>
		</g>
	</g>
	<g>
		<path fill="#6F6571" d="M4751.911,3291.903h679.591v312.615c0,75.079-61.474,136.281-136.173,136.281H3082.68
			c0-196.528,0-296.543,150.356-296.543l299.441-0.303c188.495-0.306,312.06-48.586,381.083-152.051H4751.911z"/>
	</g>
	<g>
		<g>
			<path fill="#5C6AC4" d="M3349.557,3740.799h1945.779c114.102,198.745,205.825,437.539,126.705,894.32
				c-132.393-450.483-1477.054-270.676-1615.119,249.219h-1483.68c-56.11-127.141-109.058-252.694-155.395-379.508h418.28
				C3432.13,4185.591,3160.104,4327.871,3349.557,3740.799z"/>
		</g>
	</g>
	<g>
		<path fill="#ECEAEC" d="M3229.463,2519.662c28.999,152.68,68.401,303.167,112.533,431.24l427.71,167.579l476.928-167.602
			c-16.701-902.529-353.969-1335.333-640.814-1475.394c-103.39-78.73-209.289-108.376-209.289-108.376
			s-139.323,222.895-146.575,222.895c-53.585,127.444-73.757,293.7-70.285,473.179L3229.463,2519.662z"/>
	</g>
	<g>
		<g>
			<path fill="#F8837C" d="M4246.634,2950.879h-904.638c-208.354,22.718-464.621,181.393-464.621,672.879v515.161h472.182v-398.12
				c0-196.528,0-296.543,150.355-296.543l299.441-0.303c188.495-0.306,312.061-48.586,381.08-152.051
				C4233.709,3212.087,4254.202,3099.477,4246.634,2950.879z"/>
		</g>
	</g>
	<g>
		<path fill="#DAD8DB" d="M4246.634,2950.879c-16.701-902.529-353.969-1335.333-640.814-1475.394
			c-42.557,29.97-89.836,54.578-141.841,72.863c254.05,192.121,508.741,621.462,523.249,1402.53H4246.634z"/>
	</g>
	<g>
		<path opacity="0.15" d="M4246.634,2950.879h-259.406c7.561,148.598-12.921,261.208-66.196,341.023
			c-43.503,65.284-109.069,120.515-198.909,152.051h77.231c188.495-0.306,312.061-48.586,381.08-152.051
			C4233.709,3212.087,4254.202,3099.477,4246.634,2950.879z"/>
	</g>
	<g>
		<g>
			<path fill="#5C6AC4" d="M4970.657,1878.328h965.481c120.407,0,218.75,98.418,218.75,218.933v362.144H4751.911V2097.26
				C4751.911,1976.746,4850.25,1878.328,4970.657,1878.328z"/>
		</g>
	</g>
	<g>
		<g>
			<path fill="#F8837C" d="M4751.911,2350.259h1402.984v344.171H4751.911V2350.259z"/>
		</g>
	</g>
	<g opacity="0.12">
		<g>
			<path d="M5862.069,2350.259h179.664h113.162V2097.26c0-82.334-46.021-154.265-113.151-191.49
				c-31.524-17.353-67.459-27.443-105.594-27.443h-292.831c120.407,0,218.75,98.418,218.75,218.933V2350.259z"/>
		</g>
	</g>
	<g opacity="0.15">
		<path d="M5862.069,2694.43h179.675h113.151v-108.832v-126.194v-109.145h-113.151h-179.675v109.145v126.194V2694.43z"/>
	</g>
	<g opacity="0.12">
		<g>
			<path d="M5862.069,2694.43v378.551c0,120.493-98.343,218.922-218.75,218.922h292.831c38.135,0,74.069-9.773,105.594-27.127
				c67.143-37.55,113.151-109.46,113.151-191.795V2694.43h-113.151H5862.069z"/>
		</g>
	</g>
	<g>
		<g>
			<path fill="#F8837C" d="M3806.911,4884.338c0-466.555,369.734-838.178,825.853-838.178
				c370.993,0,684.946,246.069,789.277,588.981c21.438,70.323,34.046,145.1,36.251,222.699
				c0.954,30.298-19.852,26.497-48.218,26.497C4875.782,4884.338,4341.195,4884.035,3806.911,4884.338z"/>
		</g>
	</g>
	<g>
		<path fill="#6F6571" d="M4014.647,4884.338h1257.049c-17.971,338.807-292.524,608.223-628.53,608.223
			C4307.149,5492.54,4032.6,5223.145,4014.647,4884.338z"/>
	</g>
	<g>
		<path fill="#6F6571" d="M822.533,4750.27l1081.479,248.893c-68.718,298.76-366.584,485.494-665.083,416.733
			C940.106,5347.114,753.827,5049.006,822.533,4750.27z"/>
	</g>
	<g>
		<path fill="#ECEAEC" d="M741.524,4447.125c152.874-222.396,418.284-351.426,695.673-323.669
			c489.199,103.467,648.378,395.903,680.22,760.578c-0.637,49.518-5.993,99.36-16.701,149.204
			c-3.151,13.878-12.306,8.211-27.427,4.736l-169.265-38.79L822.544,4750.292l-81.008-18.613l-113.155-26.191
			C650.121,4610.208,689.206,4523.14,741.524,4447.125z"/>
	</g>
	<g>
		<g>
			<path fill="#F8837C" d="M1436.251,4122.196l436.873-1511.687l196.685-88.002l220.02,88.002
				c-289.05,801.278-208.358,1360.571-13.244,1894.344c46.646,126.813,99.601,252.367,155.402,379.485h-314.261L1436.251,4122.196z"
				/>
		</g>
	</g>
	<g>
		<path fill="#FFECE4" d="M2789.118,915.552l512.526-109.146c52.005,4.736,200.785,129.66,200.785,207.879l-109.058,554.577
			c-45.391,13.563-93.616,21.143-143.429,21.143c-272.967,0-494.238-221.765-494.238-494.962
			C2755.705,1031.626,2767.371,971.054,2789.118,915.552z"/>
	</g>
	<g>
		<g>
			<path fill="#F8837C" d="M2623.634,915.552c0-352.691,279.272-638.179,624.108-638.179c344.841,0,624.117,285.488,624.117,638.179
				c0,232.81-94.563,439.754-266.04,559.934c-61.146,43.218-132.381,75.08-212.436,93.376v-554.577
				c0-78.242-39.723-94.008-91.729-98.744H2789.13h-165.496V915.552z"/>
		</g>
	</g>
	<g>
		<path opacity="0.15" d="M2921.194,371.69c94.871-59.936,206.768-94.317,326.548-94.317c344.841,0,624.117,285.488,624.117,638.179
			c0,232.81-94.563,439.754-266.04,559.934c-43.491,30.601-91.728,55.533-144.676,73.821
			c126.705-128.399,195.435-312.625,195.435-515.792c0-368.445-292.201-667.191-652.479-667.191
			C2976.03,366.331,2948.298,367.914,2921.194,371.69z"/>
	</g>
	<g>
		<path fill="#6F6571" d="M2877.375,4138.919h472.182v297.478c0,63.722-34.668,68.434-85.735,68.434h-677.694
			C2572.57,4206.419,2753.18,4138.919,2877.375,4138.919z"/>
	</g>
	<g opacity="0.15">
		<path d="M2276.585,4504.853c-195.114-533.772-275.806-1093.065,13.244-1894.344h-162.021c-0.629,0-1.255,0-1.888,0h-58.308
			c-289.05,801.278-208.667,1360.571-13.245,1894.344c46.337,126.813,99.285,252.367,155.395,379.485h113.479h108.753
			C2376.198,4757.22,2323.242,4631.667,2276.585,4504.853z"/>
	</g>
	<g>
		<path fill="#DAD8DB" d="M2117.405,4884.035l-680.219-760.578c-70.293-6.95-139.953-4.104-207.095,8.209l653.745,730.91
			c-0.641,42.59-4.73,85.811-12.924,129.03l33.088,7.557l169.269,38.813c15.133,3.475,24.273,9.142,27.424-4.736
			C2111.424,4983.395,2116.78,4933.552,2117.405,4884.035z"/>
	</g>
	<g opacity="0.12">
		<g>
			<path d="M5295.329,3740.799H3349.557v171.293h1598.731c130.18,0,191.958,56.143,242.705,170.034
				c43.815,98.731,44.762,130.917,64.621,250.151c74.703,86.744,132.072,189.602,166.427,302.842
				C5501.154,4178.338,5409.438,3939.544,5295.329,3740.799z"/>
		</g>
	</g>
	<g opacity="0.15">
		<path d="M5255.614,4332.301c-151.302-175.724-374.152-286.141-622.851-286.141c-62.42,0-122.925,6.95-181.239,19.872
			c372.252,84.246,632.612,412.953,643.972,791.809c0.63,20.828-8.838,25.563-23.956,26.497h200.156h138.378
			c28.366,0,49.172,3.801,48.218-26.497c-2.193-77.6-14.813-152.354-36.251-222.699c-0.629-2.216-1.259-4.106-1.888-5.995
			c0,0,0,0,0-0.326C5385.47,4518.101,5329.043,4417.458,5255.614,4332.301z"/>
	</g>
	<g>
		<path fill="#5D5360" d="M1870.912,4991.606L822.533,4750.27c-11.662,49.541-15.754,99.383-13.866,147.945l832.151,191.492
			l32.783,7.579c-30.895,135.653-109.375,248.264-213.71,324.278c212.764-37.531,392.752-198.42,444.121-422.402L1870.912,4991.606z
			"/>
	</g>
	<g>
		<path fill="#5D5360" d="M5071.528,4884.338H4014.636c3.464,66.241,17.028,129.983,38.769,189.601h736.318h200.156
			c-7.885,148.271-64.612,282.969-154.124,388.021c243.018-79.813,421.751-306.641,435.931-577.621H5071.528z"/>
	</g>
	<g>
		<path fill="#5D5360" d="M5431.502,3604.518v-312.615h-427.104v312.615c0,75.079-61.474,136.281-136.173,136.281h427.104
			C5370.028,3740.799,5431.502,3679.597,5431.502,3604.518z"/>
	</g>
	<g>
		<path fill="#FFDDCE" d="M2758.227,1042.052h421.122c52.002,4.734,91.729,20.805,91.729,99.057v448.267
			c42.229-1.888,83.206-8.817,122.295-20.501v-554.589c0-78.242-39.723-94.008-91.728-98.744h-512.526
			C2773.669,955.286,2762.953,997.876,2758.227,1042.052z"/>
	</g>
	<g>
		<g>
			<path fill="#5C6AC4" d="M1782.03,2134.485l589.754,194.946c28.999,25.865-3.781,289.593-23.334,281.078h-475.325h-210.243
				v-434.063C1662.882,2090.941,1707.331,2109.879,1782.03,2134.485z"/>
		</g>
	</g>
	<g>
		<path fill="#FFECE4" d="M2646.64,2610.509h-49.484h-248.694c-160.122,0-164.848-265.615,23.331-281.078l274.86-22.089
			l73.753,156.166L2646.64,2610.509z"/>
	</g>
	<g>
		<path fill="#FF8086" d="M3179.658,2063.184l98.655-84.854c247.127-212.926,559.492,146.361,229.156,360.874l-278.019,180.446
			l-139.953,90.859h-442.869v-303.167l275.172-22.392L3179.658,2063.184z"/>
	</g>
	<g>
		<path fill="#FFDDCE" d="M2646.64,2610.509v-147.001h-58.944h-31.838h-49.8h-248.699c-9.453,0-18.28-0.641-26.791-2.529
			c-9.144,73.19,32.15,149.53,117.893,149.53h248.694H2646.64z"/>
	</g>
	<g>
		<path fill="#F76672" d="M3507.47,2339.205c199.851-129.964,164.538-312.615,50.754-389.585
			c9.133,78.858-28.373,169.403-141.842,242.898l-216.556,140.377l-61.146,40.06l-139.953,90.542H2646.64v147.001h442.87
			l139.953-90.848L3507.47,2339.205z"/>
	</g>
	<g>
		<path opacity="0.12" d="M2371.784,2329.431l-237.357-78.231c-79.43,85.179-117.893,251.109-66.822,359.309h222.224h58.621
			c-85.731,0-127.037-76.34-117.893-149.53C2238.77,2397.583,2284.47,2336.685,2371.784,2329.431z"/>
	</g>
	<path d="M5936.139,1794.929h-965.481c-166.601,0-302.155,135.621-302.155,302.331v1111.242H4307.38
		c20.066-72.949,27.507-159.021,22.618-259.164l0,0c-7.829-423.216-84.623-779.886-228.271-1060.141
		c-111.522-217.573-241.681-348.015-353.369-426.005c131.092-134.784,206.881-326.515,206.881-547.673
		c0-397.869-317.394-721.557-707.504-721.557c-390.118,0-707.512,323.688-707.512,721.557c0,46.086,37.341,83.398,83.398,83.398
		h56.668c-5.217,31.47-7.994,63.548-7.994,96.125c0,280.385,200.356,514.748,465.25,567.264
		c-27.763,103.098-41.564,224.676-41.509,362.783l-208.007,178.895l-506.115,40.94l-583.825-192.99
		c-53.513-17.788-114.162-37.9-166.774,0.043c-51.855,37.42-51.855,102.922-51.855,124.446v434.054
		c0,46.075,37.34,83.398,83.402,83.398h99.285L1609.862,3220.1c-12.796,44.242,12.69,90.502,56.932,103.294
		c44.271,12.879,90.492-12.683,103.303-56.901l165.711-572.617h237.094c-294.896,899.282-126.633,1499.558,132.004,2107.042
		h-149.915l-624.415-698.182l132.034-456.129c12.815-44.239-12.671-90.479-56.917-103.292
		c-44.245-12.792-90.496,12.684-103.303,56.923l-126.287,436.323c-390.597-6.516-739.978,262.77-829.019,650.227
		c-10.313,44.871,17.703,89.609,62.574,99.948l118.387,27.235c-30.243,314.156,176.642,610.547,492.158,683.173
		c47.917,11.055,96.24,16.507,144.235,16.507c118.356,0,234.636-33.188,337.483-97.646
		c120.705-75.646,210.646-186.845,259.316-318.263l93.417,21.501c27.834,6.43,54.233,9.687,80.609-4.495
		c24.537-13.228,40.853-37.074,46.97-63.981c5.873-27.302,10.339-55.057,13.444-83.052h1744.225
		c55.786,346.798,350.841,608.202,703.245,608.202c352.4,0,647.478-261.404,703.252-608.202h63.656l7.35,0.087
		c2.552,0.021,5.276,0.064,8.145,0.064c23.848,0,58.304-2.65,86.591-31.427c14.149-14.398,30.764-40.179,29.485-81.096
		c-2.348-78.317-14.096-153.983-34.155-225.914c66.427-403.289,2.511-648.925-92.248-841.153
		c59.909-39.269,99.624-106.921,99.624-183.782v-229.216h421.258c166.604,0,302.159-135.609,302.159-302.319v-975.72
		C6238.298,1930.55,6102.762,1794.929,5936.139,1794.929z M1613.356,5274.682c-106.763,66.914-233.083,88.178-355.718,59.943h-0.011
		c-225.707-51.951-376.293-258.926-365.313-482.713l904.626,208.215C1759.513,5148.239,1696.189,5222.776,1613.356,5274.682z
		 M2030.657,4942.587L733.368,4644.067c100.11-274.15,369.516-455.63,664.009-440.015l635.507,710.561
		C2032.322,4923.997,2031.591,4933.313,2030.657,4942.587z M3290.367,3489.28c-24.213,63.852-24.213,142.56-24.213,251.52v314.722
		h-305.381v-431.763c0-488.142,266.409-575.124,385.968-589.479h817.632c-3.29,110.784-28.286,189.535-75.75,239.51
		c-55.308,58.248-149.945,86.634-289.345,86.766l-299.354,0.303C3393.165,3360.879,3322.668,3404.079,3290.367,3489.28z
		 M3266.154,4222.318v199.114c-0.754,0-1.53,0-2.333,0h-592.385c6.664-61.745,25.897-109.547,57.493-142.604
		c46.989-49.191,113.174-56.511,148.445-56.511H3266.154z M4160.695,2867.481h-758.451c-30.461-95.832-57.613-200.786-79.941-308.64
		l230.592-149.683c125.879-81.727,191.359-197.247,179.664-316.892c-10.361-106.073-82.475-200.831-183.716-241.379
		c-92.444-37.029-191.959-25.411-279.906,30.84c7.255-79.782,20.752-150.987,40.276-211.451c35.554-3.66,70.858-10.61,105.53-20.805
		c70.571-16.397,135.796-42.504,194.672-77.144C3770.046,1668.279,4123.317,1979.546,4160.695,2867.481z M2713.126,832.143
		c39.33-266.481,264.084-471.371,534.609-471.371c298.145,0,540.703,248.872,540.703,554.77
		c0,248.785-119.299,449.311-311.668,537.564v-438.82c0-75.983-29.082-169.198-167.569-181.796
		c-2.507-0.237-5.039-0.347-7.557-0.347H2713.126z M2839.104,1095.043c0-32.902,3.747-65.056,11.119-96.104h447.328
		c5.145,0.554,8.902,1.151,11.598,1.694c0.434,3.106,0.814,7.537,0.814,13.652v487.891c-19.875,2.933-39.866,4.41-59.85,4.41
		c-0.192,0-0.377,0-0.562,0C3023.204,1506.379,2839.104,1321.849,2839.104,1095.043z M2730.984,2384.052l197.533-15.975
		c17.602-1.412,34.291-8.394,47.693-19.893l356.502-306.631l0.053-0.055c34.472-29.7,71.27-44.935,107.094-44.935
		c15.943,0,31.71,3.031,46.979,9.132c44.063,17.656,75.351,57.999,79.727,102.771c5.519,56.338-31.6,113.457-104.475,160.781
		l-397.253,257.84h-333.834v-143.037H2730.984z M2378.531,2412.567l185.653-15.006v129.55H2348.45
		c-27.967,0-34.781-23.238-35.58-42.732C2312.414,2473.325,2313.458,2417.912,2378.531,2412.567z M2181.145,2354.993
		c-25.125,41.177-36.851,89.371-34.928,136.218c0.498,12.118,2.046,23.813,4.203,35.205c0,0.239-0.132,0.456-0.087,0.695H1746.28
		v-316.632l435.185,143.862C2181.333,2354.558,2181.269,2354.776,2181.145,2354.993z M2348.917,2693.908h740.593
		c16.116,0,31.894-4.679,45.402-13.454l37.751-24.51c18.159,80.272,38.84,158.371,61.371,232.148
		c-170.087,50.191-440.069,212.449-440.069,735.666v440.124c-58.507,11.814-127.729,39.093-185.63,99.688
		c-61.037,63.873-95.9,150.42-104.261,257.861h-168.247c-169.533-488.577-234.003-1008.492,13.09-1727.536V2693.908z
		 M2486.379,4800.636c-30.819-70.891-60.535-141.518-88.513-212.406h865.944c112.231,0,169.133-51.082,169.133-151.833v-297.478
		v-314.722h658.284c46.076,0,83.397-37.332,83.397-83.398c0-46.063-37.321-83.398-83.397-83.398h-657.688
		c1.074-47.367,4.104-86.113,12.792-109.005c4.214-11.118,7.862-20.741,53.668-20.741l299.431-0.303
		c187.537-0.174,321.693-45.544,410.15-138.716c4.097-4.3,7.972-8.84,11.85-13.335h530.481h596.192v229.217
		c0,28.667-24.164,52.883-52.768,52.883h-830.259c-46.065,0-83.397,37.335-83.397,83.398c0,46.066,37.332,83.398,83.397,83.398
		h781.254c65.913,122.341,125.204,274.586,121.677,515.117c-164.983-229.193-432.098-376.553-735.244-376.553
		c-243.463,0-471.907,95.495-643.275,268.916c-152.063,153.854-243.388,353.554-262.184,569.239L2486.379,4800.636z
		 M4643.155,5409.142c-260.719,0-480.595-187.844-533.795-441.406h1067.59C5123.753,5221.278,4903.865,5409.142,4643.155,5409.142z
		 M5271.696,4800.94H4014.647h-119.819c40.951-377.118,356.257-671.381,737.936-671.381c335.093,0,616.511,220.963,709.705,530.276
		c0.29,0.978,0.596,1.954,0.931,2.932c13.173,44.37,22.479,90.565,27.518,138.173H5271.696z M6071.497,3072.981
		c0,74.732-60.723,135.521-135.358,135.521h-1100.84v-430.674h1236.198V3072.981z M6071.497,2611.032H4835.299v-177.375h1236.198
		V2611.032z M6071.497,2266.859H4835.299V2097.26c0-74.743,60.723-135.544,135.358-135.544h965.481
		c74.636,0,135.358,60.811,135.358,135.544V2266.859z"/>
</g>
</svg>
