<?xml version="1.0" encoding="utf-8"?>
<!-- Generator: Adobe Illustrator 16.0.0, SVG Export Plug-In . SVG Version: 6.00 Build 0)  -->
<!DOCTYPE svg PUBLIC "-//W3C//DTD SVG 1.1//EN" "http://www.w3.org/Graphics/SVG/1.1/DTD/svg11.dtd">
<svg version="1.1" id="Lag_1" xmlns="http://www.w3.org/2000/svg" xmlns:xlink="http://www.w3.org/1999/xlink" x="0px" y="0px"
	 width="7086.609px" height="5669.29px" viewBox="0 0 7086.609 5669.29" enable-background="new 0 0 7086.609 5669.29"
	 xml:space="preserve">
<g>
	<g>
		<path fill="#5C6AC4" d="M1749.403,1130.397c962.246-962.23,2522.353-962.23,3484.59,0.015
			c962.253,962.238,962.253,2522.34,0,3484.591c-962.237,962.251-2522.345,962.251-3484.59,0
			C787.162,3652.752,787.162,2092.65,1749.403,1130.397z"/>
		<path opacity="0.12" d="M3489.69,483.339c-54.445,0-108.424,1.952-161.99,5.419
			c1117.902,78.151,2000.562,1009.656,2000.562,2147.429c0,1188.96-963.861,2152.823-2152.836,2152.823
			c-1137.77,0-2069.274-882.66-2147.414-2000.553c-3.471,53.559-5.419,107.529-5.419,161.99
			c0,1362.529,1104.557,2467.086,2467.097,2467.086s2467.098-1104.557,2467.098-2467.086
			C5956.788,1587.896,4852.23,483.339,3489.69,483.339z"/>
		<path fill="#F8837C" d="M5165.894,2919.434c0,924.225-749.23,1673.467-1673.469,1673.467s-1673.469-749.217-1673.469-1673.467
			H5165.894z"/>
		<path opacity="0.12" d="M2435.745,3298.122c413.49-183.801,2621.08-45.867,2621.08-45.867c0,91.805,33.811-102.01,33.811-342.906
			H1723.492c-5.979,443.94,422.21,1182.219,1027.598,1529.207c183.535,105.209,636.563,164.481,708.743,155.055
			C2803.124,4548.87,2022.263,3481.92,2435.745,3298.122z"/>
		<path fill="#F7C5C4" d="M4606.813,4167.788c-159.757-356.024-598.302-611.697-1114.377-611.697
			c-516.06,0-954.62,255.673-1114.369,611.697c0,0,562.146,425.113,1114.369,425.113
			C4044.667,4592.901,4606.813,4167.788,4606.813,4167.788z"/>
	</g>
	<g>
		<path fill="#3C122C" d="M3492.437,5462.886c-1428.187,0-2590.085-1161.926-2590.085-2590.099
			c0-1428.176,1161.899-2590.094,2590.085-2590.094s2590.101,1161.918,2590.101,2590.094
			C6082.526,4300.96,4920.623,5462.886,3492.437,5462.886z M3492.437,534.186c-1289.52,0-2338.59,1049.082-2338.59,2338.602
			c0,1289.506,1049.086,2338.601,2338.59,2338.601c1289.508,0,2338.602-1049.095,2338.602-2338.601
			C5831.038,1583.279,4781.944,534.186,3492.437,534.186z"/>
		<path fill="#3C122C" d="M2909.875,2292.96c-69.434,0-125.738-56.293-125.738-125.738c0-192.993-157.003-349.977-349.977-349.977
			c-192.985,0-349.992,156.984-349.992,349.977c0,69.445-56.305,125.738-125.738,125.738c-69.43,0-125.742-56.293-125.742-125.738
			c0-331.66,269.828-601.477,601.484-601.477c331.648,0,601.468,269.84,601.468,601.477
			C3035.617,2236.667,2979.313,2292.96,2909.875,2292.96z"/>
		<path fill="#3C122C" d="M5026.467,2292.96c-69.43,0-125.746-56.293-125.746-125.738c0-192.993-156.999-349.977-349.992-349.977
			c-192.974,0-349.969,156.984-349.969,349.977c0,69.445-56.305,125.738-125.75,125.738c-69.43,0-125.734-56.293-125.734-125.738
			c0-331.66,269.824-601.477,601.477-601.477s601.477,269.84,601.477,601.477C5152.205,2236.667,5095.9,2292.96,5026.467,2292.96z"
			/>
		<path fill="#3C122C" d="M5165.905,2793.707H1818.968c-69.43,0-125.734,56.293-125.734,125.727
			c0,992.094,807.12,1799.217,1799.203,1799.217s1799.219-807.123,1799.219-1799.217
			C5291.655,2850,5235.351,2793.707,5165.905,2793.707z M2537.219,4136.284c171.613-275.066,541.801-454.445,955.218-454.445
			s783.593,179.379,955.229,454.445c-263.268,207.123-595.039,330.895-955.229,330.895
			C3132.262,4467.178,2800.475,4343.407,2537.219,4136.284z M4634.129,3963.205c-226.61-324.251-662.46-532.864-1141.704-532.864
			c-479.252,0-915.128,208.588-1141.715,532.839c-225.453-246.394-372.486-565.686-400.962-917.973h3085.34
			C5006.638,3397.494,4859.594,3716.811,4634.129,3963.205z"/>
	</g>
</g>
</svg>
